<?xml version="1.0" encoding="utf-8"?>
<!-- Generator: Adobe Illustrator 16.0.4, SVG Export Plug-In . SVG Version: 6.00 Build 0)  -->
<!DOCTYPE svg PUBLIC "-//W3C//DTD SVG 1.1//EN" "http://www.w3.org/Graphics/SVG/1.1/DTD/svg11.dtd">
<svg version="1.1" id="Layer_1" xmlns="http://www.w3.org/2000/svg" xmlns:xlink="http://www.w3.org/1999/xlink" x="0px" y="0px"
	 width="32px" height="32px" viewBox="0 0 32 32" enable-background="new 0 0 32 32" xml:space="preserve">
<path fill="#231C3E" d="M24,0H8C3.6,0,0,3.6,0,8v16c0,4.398,3.6,8,8,8h16c4.4,0,8-3.602,8-8V8C32,3.6,28.4,0,24,0z"/>
<g>
	<path fill="#FFFFFF" d="M11.997,10.028c0.561,0,1.067,0.048,1.529,0.149c0.46,0.097,0.853,0.26,1.184,0.483
		c0.327,0.224,0.582,0.52,0.766,0.895c0.178,0.368,0.268,0.83,0.268,1.375c0,0.591-0.134,1.084-0.401,1.478
		c-0.271,0.394-0.667,0.716-1.196,0.967c0.721,0.208,1.255,0.573,1.61,1.091c0.356,0.523,0.53,1.148,0.53,1.883
		c0,0.594-0.113,1.105-0.34,1.536c-0.23,0.436-0.543,0.789-0.928,1.062c-0.388,0.275-0.834,0.477-1.333,0.607
		c-0.495,0.132-1.008,0.197-1.533,0.197H6.47V10.028H11.997 M11.664,14.765c0.457,0,0.836-0.108,1.136-0.329
		c0.297-0.217,0.441-0.575,0.441-1.067c0-0.272-0.047-0.497-0.144-0.673c-0.1-0.175-0.231-0.312-0.397-0.407
		c-0.165-0.1-0.352-0.169-0.569-0.206c-0.212-0.042-0.435-0.058-0.664-0.058H9.051v2.739H11.664z M11.806,19.755
		c0.255,0,0.496-0.022,0.724-0.074c0.23-0.05,0.435-0.13,0.608-0.248c0.172-0.114,0.315-0.27,0.419-0.468
		c0.105-0.197,0.154-0.451,0.154-0.76c0-0.604-0.17-1.032-0.508-1.294c-0.338-0.257-0.791-0.385-1.346-0.385H9.051v3.229H11.806z"/>
	<path fill="#FFFFFF" d="M19.966,19.716c0.35,0.341,0.854,0.512,1.508,0.512c0.471,0,0.877-0.117,1.218-0.355
		c0.338-0.236,0.544-0.489,0.624-0.752h2.053c-0.33,1.021-0.831,1.751-1.515,2.19c-0.674,0.44-1.497,0.661-2.457,0.661
		c-0.669,0-1.271-0.108-1.812-0.322c-0.54-0.216-0.991-0.518-1.371-0.912c-0.369-0.396-0.656-0.865-0.861-1.415
		c-0.202-0.548-0.305-1.153-0.305-1.809c0-0.635,0.106-1.228,0.313-1.776c0.212-0.55,0.505-1.024,0.889-1.422
		c0.386-0.4,0.843-0.715,1.376-0.946c0.533-0.229,1.12-0.346,1.771-0.346c0.718,0,1.347,0.138,1.886,0.42
		c0.538,0.277,0.978,0.653,1.324,1.125c0.346,0.469,0.592,1.008,0.746,1.61c0.152,0.602,0.206,1.231,0.162,1.89H19.39
		C19.39,18.74,19.616,19.376,19.966,19.716 M22.646,15.256c-0.277-0.306-0.747-0.473-1.319-0.473c-0.372,0-0.681,0.063-0.928,0.191
		c-0.24,0.125-0.439,0.282-0.59,0.467c-0.15,0.188-0.254,0.386-0.313,0.598c-0.059,0.206-0.096,0.394-0.105,0.559h3.793
		C23.127,16.005,22.924,15.565,22.646,15.256z"/>
	<rect x="18.912" y="10.814" fill="#FFFFFF" width="4.752" height="1.157"/>
</g>
</svg>
